REM DIRINDEX 1\3,1\2\4,1\2\5,1\2\6
REM DIRNAME folder01,folder02,folder03,folder04,folder05,folder06
TITLE ""
FILE "032.mp3" MP3
  TRACK 01 AUDIO
    TITLE "4:cjc137_1305"
    INDEX 01 00:00:00
  TRACK 02 AUDIO
    TITLE "0:"
    INDEX 01 00:00:70
  TRACK 03 AUDIO
    TITLE "6:cjc137_1306"
    INDEX 01 00:00:74
  TRACK 04 AUDIO
    TITLE "0:"
    INDEX 01 00:02:08
  TRACK 05 AUDIO
    TITLE "5:cjc137_1307"
    INDEX 01 00:02:12
  TRACK 06 AUDIO
    TITLE "0:"
    INDEX 01 00:03:06
  TRACK 07 AUDIO
    TITLE "4:cjc137_1308"
    INDEX 01 00:04:15
  TRACK 08 AUDIO
    TITLE "0:"
    INDEX 01 00:05:22
  TRACK 09 AUDIO
    TITLE "6:cjc137_1309"
    INDEX 01 00:05:30
  TRACK 10 AUDIO
    TITLE "0:"
    INDEX 01 00:06:30
  TRACK 11 AUDIO
    TITLE "5:cjc137_1310"
    INDEX 01 00:06:35
  TRACK 12 AUDIO
    TITLE "0:"
    INDEX 01 00:07:41
  TRACK 13 AUDIO
    TITLE "4:cjc137_1311"
    INDEX 01 00:08:50
  TRACK 14 AUDIO
    TITLE "0:"
    INDEX 01 00:09:63
  TRACK 15 AUDIO
    TITLE "6:cjc137_1312"
    INDEX 01 00:09:71
  TRACK 16 AUDIO
    TITLE "0:"
    INDEX 01 00:10:61
  TRACK 17 AUDIO
    TITLE "5:cjc137_1313"
    INDEX 01 00:10:68
  TRACK 18 AUDIO
    TITLE "0:"
    INDEX 01 00:12:05
  TRACK 19 AUDIO
    TITLE "4:cjc137_1314"
    INDEX 01 00:13:14
  TRACK 20 AUDIO
    TITLE "0:"
    INDEX 01 00:14:19
  TRACK 21 AUDIO
    TITLE "6:cjc137_1315"
    INDEX 01 00:14:23
  TRACK 22 AUDIO
    TITLE "0:"
    INDEX 01 00:15:21
  TRACK 23 AUDIO
    TITLE "5:cjc137_1316"
    INDEX 01 00:15:28
  TRACK 24 AUDIO
    TITLE "0:"
    INDEX 01 00:16:34
  TRACK 25 AUDIO
    TITLE "4:cjc137_1317"
    INDEX 01 00:17:39
  TRACK 26 AUDIO
    TITLE "0:"
    INDEX 01 00:18:39
  TRACK 27 AUDIO
    TITLE "6:cjc137_1318"
    INDEX 01 00:18:50
  TRACK 28 AUDIO
    TITLE "0:"
    INDEX 01 00:19:48
  TRACK 29 AUDIO
    TITLE "5:cjc137_1319"
    INDEX 01 00:19:52
  TRACK 30 AUDIO
    TITLE "0:"
    INDEX 01 00:20:53
  TRACK 31 AUDIO
    TITLE "4:cjc137_1320"
    INDEX 01 00:21:62
  TRACK 32 AUDIO
    TITLE "0:"
    INDEX 01 00:22:68
  TRACK 33 AUDIO
    TITLE "6:cjc137_1321"
    INDEX 01 00:23:01
  TRACK 34 AUDIO
    TITLE "0:"
    INDEX 01 00:24:41
  TRACK 35 AUDIO
    TITLE "5:cjc137_1322"
    INDEX 01 00:24:47
  TRACK 36 AUDIO
    TITLE "0:"
    INDEX 01 00:25:54
  TRACK 37 AUDIO
    TITLE "4:cjc137_1323"
    INDEX 01 00:26:60
  TRACK 38 AUDIO
    TITLE "0:"
    INDEX 01 00:28:04
  TRACK 39 AUDIO
    TITLE "6:cjc137_1324"
    INDEX 01 00:28:13
  TRACK 40 AUDIO
    TITLE "0:"
    INDEX 01 00:30:03
  TRACK 41 AUDIO
    TITLE "5:cjc137_1325"
    INDEX 01 00:30:12
  TRACK 42 AUDIO
    TITLE "0:"
    INDEX 01 00:31:35
  TRACK 43 AUDIO
    TITLE "4:cjc137_1326"
    INDEX 01 00:32:47
  TRACK 44 AUDIO
    TITLE "0:"
    INDEX 01 00:33:54
  TRACK 45 AUDIO
    TITLE "6:cjc137_1327"
    INDEX 01 00:33:60
  TRACK 46 AUDIO
    TITLE "0:"
    INDEX 01 00:34:67
  TRACK 47 AUDIO
    TITLE "5:cjc137_1328"
    INDEX 01 00:35:02
  TRACK 48 AUDIO
    TITLE "0:"
    INDEX 01 00:36:09
  TRACK 49 AUDIO
    TITLE "4:cjc137_1329"
    INDEX 01 00:37:16
  TRACK 50 AUDIO
    TITLE "0:"
    INDEX 01 00:38:31
  TRACK 51 AUDIO
    TITLE "6:cjc137_1330"
    INDEX 01 00:38:39
  TRACK 52 AUDIO
    TITLE "0:"
    INDEX 01 00:39:51
  TRACK 53 AUDIO
    TITLE "5:cjc137_1331"
    INDEX 01 00:39:56
  TRACK 54 AUDIO
    TITLE "0:"
    INDEX 01 00:40:73
  TRACK 55 AUDIO
    TITLE "4:cjc137_1332"
    INDEX 01 00:42:06
  TRACK 56 AUDIO
    TITLE "0:"
    INDEX 01 00:43:17
  TRACK 57 AUDIO
    TITLE "6:cjc137_1333"
    INDEX 01 00:43:23
  TRACK 58 AUDIO
    TITLE "0:"
    INDEX 01 00:44:36
  TRACK 59 AUDIO
    TITLE "5:cjc137_1334"
    INDEX 01 00:44:44
  TRACK 60 AUDIO
    TITLE "0:"
    INDEX 01 00:45:53
  TRACK 61 AUDIO
    TITLE "4:cjc137_1335"
    INDEX 01 00:46:60
  TRACK 62 AUDIO
    TITLE "0:"
    INDEX 01 00:47:68
  TRACK 63 AUDIO
    TITLE "6:cjc137_1336"
    INDEX 01 00:48:02
  TRACK 64 AUDIO
    TITLE "0:"
    INDEX 01 00:49:00
  TRACK 65 AUDIO
    TITLE "5:cjc137_1337"
    INDEX 01 00:49:06
  TRACK 66 AUDIO
    TITLE "0:"
    INDEX 01 00:50:15
  TRACK 67 AUDIO
    TITLE "4:cjc137_1338"
    INDEX 01 00:51:22
  TRACK 68 AUDIO
    TITLE "0:"
    INDEX 01 00:52:37
  TRACK 69 AUDIO
    TITLE "6:cjc137_1339"
    INDEX 01 00:52:43
  TRACK 70 AUDIO
    TITLE "0:"
    INDEX 01 00:53:53
  TRACK 71 AUDIO
    TITLE "5:cjc137_1340"
    INDEX 01 00:53:60
  TRACK 72 AUDIO
    TITLE "0:"
    INDEX 01 00:54:74
  TRACK 73 AUDIO
    TITLE "4:cjc137_1341"
    INDEX 01 00:56:10
  TRACK 74 AUDIO
    TITLE "0:"
    INDEX 01 00:57:03
  TRACK 75 AUDIO
    TITLE "6:cjc137_1342"
    INDEX 01 00:57:15
  TRACK 76 AUDIO
    TITLE "0:"
    INDEX 01 00:58:15
  TRACK 77 AUDIO
    TITLE "5:cjc137_1343"
    INDEX 01 00:58:26
  TRACK 78 AUDIO
    TITLE "0:"
    INDEX 01 00:59:20
  TRACK 79 AUDIO
    TITLE "4:cjc137_1344"
    INDEX 01 01:00:33
  TRACK 80 AUDIO
    TITLE "0:"
    INDEX 01 01:01:25
  TRACK 81 AUDIO
    TITLE "6:cjc137_1345"
    INDEX 01 01:01:34
  TRACK 82 AUDIO
    TITLE "0:"
    INDEX 01 01:03:22
  TRACK 83 AUDIO
    TITLE "5:cjc137_1346"
    INDEX 01 01:03:31
  TRACK 84 AUDIO
    TITLE "0:"
    INDEX 01 01:04:27
